<svg xmlns="http://w3.org" viewBox="0 0 541 681" width="100" height="100">
  <!-- Stem (Green) -->
  <path fill="#65b687" d="M198.8 152.3c27.3 0 34.9-26.2 34.9-67s-25.6-81.5-34.9-81.5-35.6 40-35.6 80.8 8.3 67.7 35.6 67.7z"/>
  
  <!-- Left Leaf (Darker Green) -->
  <path fill="#418d5d" d="M137.1 174c30.4-3 41.1-27.7 44.7-64.9 3.7-37.2-21.1-70.8-31.5-69.8-10.3 1-43.1 40.3-46.8 77.5-3.6 37.2 3.2 60.1 33.6 57.2z"/>
  
  <!-- Right Leaf (Green) -->
  <path fill="#65b687" d="M253.9 186.9c30.4 3 36.4-20 32.8-57.2-3.7-37.2-35.7-76.4-46-77.4s-36 32.5-32.3 69.7 15.2 61.9 45.5 64.9z"/>
  
  <!-- Main Body (Yellow) -->
  <path fill="#ffe16a" d="M182.9 331c56.9 0 103-16.5 103-91.5s-46.1-136.5-103-136.5-103 61.5-103 136.5 46.1 91.5 103 91.5z"/>

  <!-- Face: Eyes -->
  <circle cx="145" cy="225" r="10" fill="#000000"/>
  <circle cx="220" cy="225" r="10" fill="#000000"/>

  <!-- Face: Mouth (Smile) -->
  <path d="M165 265c10 8 30 8 45 0" stroke="#000000" stroke-width="5" fill="none" stroke-linecap="round"/>
</svg>
