{
  "asset": {
    "version": "2.0",
    "generator": "THREE.GLTFExporter r181"
  },
  "scenes": [
    {
      "name": "AuxScene",
      "nodes": [
        0
      ]
    }
  ],
  "scene": 0,
  "nodes": [
    {
      "children": [
        1,
        2,
        3,
        4,
        5,
        6,
        7
      ]
    },
    {
      "matrix": [
        0.05,
        0,
        0,
        0,
        0,
        -0.05,
        0,
        0,
        0,
        0,
        0.05,
        0,
        0,
        0,
        0,
        1
      ],
      "mesh": 0
    },
    {
      "matrix": [
        0.05,
        0,
        0,
        0,
        0,
        -0.05,
        0,
        0,
        0,
        0,
        0.05,
        0,
        0,
        0,
        0,
        1
      ],
      "mesh": 1
    },
    {
      "matrix": [
        0.05,
        0,
        0,
        0,
        0,
        -0.05,
        0,
        0,
        0,
        0,
        0.05,
        0,
        0,
        0,
        0,
        1
      ],
      "mesh": 2
    },
    {
      "matrix": [
        0.05,
        0,
        0,
        0,
        0,
        -0.05,
        0,
        0,
        0,
        0,
        0.05,
        0,
        0,
        0,
        0,
        1
      ],
      "mesh": 3
    },
    {
      "matrix": [
        0.05,
        0,
        0,
        0,
        0,
        -0.05,
        0,
        0,
        0,
        0,
        0.05,
        0,
        0,
        0,
        0,
        1
      ],
      "mesh": 4
    },
    {
      "matrix": [
        0.05,
        0,
        0,
        0,
        0,
        -0.05,
        0,
        0,
        0,
        0,
        0.05,
        0,
        0,
        0,
        0,
        1
      ],
      "mesh": 5
    },
    {
      "matrix": [
        0.05,
        0,
        0,
        0,
        0,
        -0.05,
        0,
        0,
        0,
        0,
        0.05,
        0,
        0,
        0,
        0,
        1
      ],
      "mesh": 6
    }
  ],
  "bufferViews": [
    {
      "buffer": 0,
      "byteOffset": 0,
      "byteLength": 55728,
      "target": 34962,
      "byteStride": 12
    },
    {
      "buffer": 0,
      "byteOffset": 55728,
      "byteLength": 37152,
      "target": 34962,
      "byteStride": 8
    },
    {
      "buffer": 0,
      "byteOffset": 92880,
      "byteLength": 55728,
      "target": 34962,
      "byteStride": 12
    },
    {
      "buffer": 0,
      "byteOffset": 148608,
      "byteLength": 131760,
      "target": 34962,
      "byteStride": 12
    },
    {
      "buffer": 0,
      "byteOffset": 280368,
      "byteLength": 87840,
      "target": 34962,
      "byteStride": 8
    },
    {
      "buffer": 0,
      "byteOffset": 368208,
      "byteLength": 131760,
      "target": 34962,
      "byteStride": 12
    },
    {
      "buffer": 0,
      "byteOffset": 499968,
      "byteLength": 55152,
      "target": 34962,
      "byteStride": 12
    },
    {
      "buffer": 0,
      "byteOffset": 555120,
      "byteLength": 36768,
      "target": 34962,
      "byteStride": 8
    },
    {
      "buffer": 0,
      "byteOffset": 591888,
      "byteLength": 55152,
      "target": 34962,
      "byteStride": 12
    },
    {
      "buffer": 0,
      "byteOffset": 647040,
      "byteLength": 124272,
      "target": 34962,
      "byteStride": 12
    },
    {
      "buffer": 0,
      "byteOffset": 771312,
      "byteLength": 82848,
      "target": 34962,
      "byteStride": 8
    },
    {
      "buffer": 0,
      "byteOffset": 854160,
      "byteLength": 124272,
      "target": 34962,
      "byteStride": 12
    },
    {
      "buffer": 0,
      "byteOffset": 978432,
      "byteLength": 55152,
      "target": 34962,
      "byteStride": 12
    },
    {
      "buffer": 0,
      "byteOffset": 1033584,
      "byteLength": 36768,
      "target": 34962,
      "byteStride": 8
    },
    {
      "buffer": 0,
      "byteOffset": 1070352,
      "byteLength": 55152,
      "target": 34962,
      "byteStride": 12
    },
    {
      "buffer": 0,
      "byteOffset": 1125504,
      "byteLength": 124272,
      "target": 34962,
      "byteStride": 12
    },
    {
      "buffer": 0,
      "byteOffset": 1249776,
      "byteLength": 82848,
      "target": 34962,
      "byteStride": 8
    },
    {
      "buffer": 0,
      "byteOffset": 1332624,
      "byteLength": 124272,
      "target": 34962,
      "byteStride": 12
    },
    {
      "buffer": 0,
      "byteOffset": 1456896,
      "byteLength": 27504,
      "target": 34962,
      "byteStride": 12
    },
    {
      "buffer": 0,
      "byteOffset": 1484400,
      "byteLength": 18336,
      "target": 34962,
      "byteStride": 8
    },
    {
      "buffer": 0,
      "byteOffset": 1502736,
      "byteLength": 27504,
      "target": 34962,
      "byteStride": 12
    }
  ],
  "buffers": [
    {
      "byteLength": 1530240,
      "uri": "data:application/octet-stream;base64,"
    }
  ],
  "accessors": [
    {
      "bufferView": 0,
      "componentType": 5126,
      "count": 4644,
      "max": [
        -0.3418760299682617,
        -3.2969281673431396,
        1
      ],
      "min": [
        -5.395232200622559,
        -7.427445888519287,
        -1
      ],
      "type": "VEC3"
    },
    {
      "bufferView": 1,
      "componentType": 5126,
      "count": 4644,
      "max": [
        7.457808971405029,
        4.504143714904785
      ],
      "min": [
        1.2347546815872192,
        -1
      ],
      "type": "VEC2"
    },
    {
      "bufferView": 2,
      "componentType": 5126,
      "count": 4644,
      "max": [
        0.9994966983795166,
        0.999641478061676,
        1
      ],
      "min": [
        -1,
        -0.9997199773788452,
        -1
      ],
      "type": "VEC3"
    },
    {
      "bufferView": 3,
      "componentType": 5126,
      "count": 10980,
      "max": [
        5.598123550415039,
        7.426257133483887,
        1
      ],
      "min": [
        -0.9427146911621094,
        -4.702143669128418,
        -1
      ],
      "type": "VEC3"
    },
    {
      "bufferView": 4,
      "componentType": 5126,
      "count": 10980,
      "max": [
        14.776031494140625,
        15.227499961853027
      ],
      "min": [
        3.560955286026001,
        -1
      ],
      "type": "VEC2"
    },
    {
      "bufferView": 5,
      "componentType": 5126,
      "count": 10980,
      "max": [
        0.9999856948852539,
        0.9995818138122559,
        1
      ],
      "min": [
        -0.9999929666519165,
        -0.9999929070472717,
        -1
      ],
      "type": "VEC3"
    },
    {
      "bufferView": 6,
      "componentType": 5126,
      "count": 4596,
      "max": [
        8.200345993041992,
        2.968716859817505,
        1
      ],
      "min": [
        4.994215965270996,
        -2.56215500831604,
        -1
      ],
      "type": "VEC3"
    },
    {
      "bufferView": 7,
      "componentType": 5126,
      "count": 4596,
      "max": [
        16,
        10.769718170166016
      ],
      "min": [
        5.694256782531738,
        -1
      ],
      "type": "VEC2"
    },
    {
      "bufferView": 8,
      "componentType": 5126,
      "count": 4596,
      "max": [
        0.998275637626648,
        0.9991042613983154,
        1
      ],
      "min": [
        -0.9996698498725891,
        -0.9995256662368774,
        -1
      ],
      "type": "VEC3"
    },
    {
      "bufferView": 9,
      "componentType": 5126,
      "count": 10356,
      "max": [
        3.5733156204223633,
        4.325638771057129,
        1
      ],
      "min": [
        -8.200180053710938,
        -3.3139808177948,
        -1
      ],
      "type": "VEC3"
    },
    {
      "bufferView": 10,
      "componentType": 5126,
      "count": 10356,
      "max": [
        11.854106903076172,
        12.126999855041504
      ],
      "min": [
        0,
        -1
      ],
      "type": "VEC2"
    },
    {
      "bufferView": 11,
      "componentType": 5126,
      "count": 10356,
      "max": [
        0.9999895691871643,
        0.9999768137931824,
        1
      ],
      "min": [
        -0.9992501139640808,
        -0.9999896287918091,
        -1
      ],
      "type": "VEC3"
    },
    {
      "bufferView": 12,
      "componentType": 5126,
      "count": 4596,
      "max": [
        -0.3269534111022949,
        7.427450180053711,
        1
      ],
      "min": [
        -5.373263835906982,
        3.2928993701934814,
        -1
      ],
      "type": "VEC3"
    },
    {
      "bufferView": 13,
      "componentType": 5126,
      "count": 4596,
      "max": [
        14.767017364501953,
        15.228654861450195
      ],
      "min": [
        2.8269999027252197,
        -1
      ],
      "type": "VEC2"
    },
    {
      "bufferView": 14,
      "componentType": 5126,
      "count": 4596,
      "max": [
        0.9995428919792175,
        0.9996932148933411,
        1
      ],
      "min": [
        -0.998924732208252,
        -0.99957674741745,
        -1
      ],
      "type": "VEC3"
    },
    {
      "bufferView": 15,
      "componentType": 5126,
      "count": 10356,
      "max": [
        5.6198320388793945,
        1.7422133684158325,
        1
      ],
      "min": [
        -4.700584888458252,
        -7.426696300506592,
        -1
      ],
      "type": "VEC3"
    },
    {
      "bufferView": 16,
      "componentType": 5126,
      "count": 10356,
      "max": [
        13.419815063476562,
        9.543557167053223
      ],
      "min": [
        1.3023208379745483,
        -1
      ],
      "type": "VEC2"
    },
    {
      "bufferView": 17,
      "componentType": 5126,
      "count": 10356,
      "max": [
        0.9999837875366211,
        0.9999896287918091,
        1
      ],
      "min": [
        -0.9999895691871643,
        -0.999967098236084,
        -1
      ],
      "type": "VEC3"
    },
    {
      "bufferView": 18,
      "componentType": 5126,
      "count": 2292,
      "max": [
        1.6604290008544922,
        1.6250582933425903,
        1
      ],
      "min": [
        -1.4604291915893555,
        -1.4958003759384155,
        -1
      ],
      "type": "VEC3"
    },
    {
      "bufferView": 19,
      "componentType": 5126,
      "count": 2292,
      "max": [
        9.460000038146973,
        9.425999641418457
      ],
      "min": [
        6.739999771118164,
        -1
      ],
      "type": "VEC2"
    },
    {
      "bufferView": 20,
      "componentType": 5126,
      "count": 2292,
      "max": [
        0.997859001159668,
        0.9978587031364441,
        1
      ],
      "min": [
        -0.997859001159668,
        -0.997859001159668,
        -1
      ],
      "type": "VEC3"
    }
  ],
  "materials": [
    {
      "pbrMetallicRoughness": {
        "baseColorFactor": [
          0,
          0.5775804404214573,
          0.9559733532482866,
          1
        ],
        "metallicFactor": 0,
        "roughnessFactor": 0
      },
      "doubleSided": true
    },
    {
      "pbrMetallicRoughness": {
        "baseColorFactor": [
          0,
          0.5775804404214573,
          0.9559733532482866,
          1
        ],
        "metallicFactor": 0,
        "roughnessFactor": 0
      },
      "doubleSided": true
    },
    {
      "pbrMetallicRoughness": {
        "baseColorFactor": [
          0,
          0.5775804404214573,
          0.9559733532482866,
          1
        ],
        "metallicFactor": 0,
        "roughnessFactor": 0
      },
      "doubleSided": true
    },
    {
      "pbrMetallicRoughness": {
        "baseColorFactor": [
          0,
          0.5775804404214573,
          0.9559733532482866,
          1
        ],
        "metallicFactor": 0,
        "roughnessFactor": 0
      },
      "doubleSided": true
    },
    {
      "pbrMetallicRoughness": {
        "baseColorFactor": [
          0,
          0.5775804404214573,
          0.9559733532482866,
          1
        ],
        "metallicFactor": 0,
        "roughnessFactor": 0
      },
      "doubleSided": true
    },
    {
      "pbrMetallicRoughness": {
        "baseColorFactor": [
          0,
          0.5775804404214573,
          0.9559733532482866,
          1
        ],
        "metallicFactor": 0,
        "roughnessFactor": 0
      },
      "doubleSided": true
    },
    {
      "pbrMetallicRoughness": {
        "baseColorFactor": [
          0,
          0.5775804404214573,
          0.9559733532482866,
          1
        ],
        "metallicFactor": 0,
        "roughnessFactor": 0
      },
      "doubleSided": true
    }
  ],
  "meshes": [
    {
      "primitives": [
        {
          "mode": 4,
          "attributes": {
            "POSITION": 0,
            "TEXCOORD_0": 1,
            "NORMAL": 2
          },
          "material": 0
        }
      ]
    },
    {
      "primitives": [
        {
          "mode": 4,
          "attributes": {
            "POSITION": 3,
            "TEXCOORD_0": 4,
            "NORMAL": 5
          },
          "material": 1
        }
      ]
    },
    {
      "primitives": [
        {
          "mode": 4,
          "attributes": {
            "POSITION": 6,
            "TEXCOORD_0": 7,
            "NORMAL": 8
          },
          "material": 2
        }
      ]
    },
    {
      "primitives": [
        {
          "mode": 4,
          "attributes": {
            "POSITION": 9,
            "TEXCOORD_0": 10,
            "NORMAL": 11
          },
          "material": 3
        }
      ]
    },
    {
      "primitives": [
        {
          "mode": 4,
          "attributes": {
            "POSITION": 12,
            "TEXCOORD_0": 13,
            "NORMAL": 14
          },
          "material": 4
        }
      ]
    },
    {
      "primitives": [
        {
          "mode": 4,
          "attributes": {
            "POSITION": 15,
            "TEXCOORD_0": 16,
            "NORMAL": 17
          },
          "material": 5
        }
      ]
    },
    {
      "primitives": [
        {
          "mode": 4,
          "attributes": {
            "POSITION": 18,
            "TEXCOORD_0": 19,
            "NORMAL": 20
          },
          "material": 6
        }
      ]
    }
  ]
}